<?xml version="1.0" encoding="UTF-8" standalone="no"?>
<!-- Created with Inkscape (http://www.inkscape.org/) -->

<svg
   version="1.1"
   id="svg2"
   width="544.25201"
   height="204.09332"
   viewBox="0 0 544.25201 204.09332"
   sodipodi:docname="CORA_white.pdf"
   xmlns:inkscape="http://www.inkscape.org/namespaces/inkscape"
   xmlns:sodipodi="http://sodipodi.sourceforge.net/DTD/sodipodi-0.dtd"
   xmlns="http://www.w3.org/2000/svg"
   xmlns:svg="http://www.w3.org/2000/svg">
  <defs
     id="defs6" />
  <sodipodi:namedview
     id="namedview4"
     pagecolor="#ffffff"
     bordercolor="#000000"
     borderopacity="0.25"
     inkscape:showpageshadow="2"
     inkscape:pageopacity="0.0"
     inkscape:pagecheckerboard="0"
     inkscape:deskcolor="#d1d1d1"
     showgrid="false" />
  <g
     id="g10"
     inkscape:groupmode="layer"
     inkscape:label="Page 1"
     transform="matrix(1.3333333,0,0,-1.3333333,-287.244,763.464)">
    <path
       d="M -0.015,595.0735 H 841.8747 V 396.8467 H -0.015 Z"
       style="fill:#ffffff;fill-opacity:1;fill-rule:evenodd;stroke:none"
       id="path14" />
    <g
       id="g20">
      <g
         id="g22"
         transform="matrix(0,-0.65,1,0,0,0)" />
      <path
         d="m 490.7409,505.4508 h 30.4861 c 5.2197,0 9.4904,-4.2707 9.4904,-9.4901 v 0 c 0,-5.2198 -4.2707,-9.4907 -9.4904,-9.4907 h -30.4861 c -5.2197,0 -9.4903,4.2709 -9.4903,9.4907 v 0 c 0,5.2194 4.2706,9.4901 9.4903,9.4901"
         style="fill:#f47216;fill-opacity:1;fill-rule:evenodd;stroke:none"
         id="path24" />
      <g
         id="g26"
         transform="scale(1.01426,-1)">
        <path
           d="m 488.524,-448.7851 c -2.2884,0 -2.6924,-1.3461 -1.7501,-3.0963 l 44.6924,-80.9047 c 4.5774,-8.2117 8.4813,-10.2308 15.4811,-10.2308 h 7.8081 c 5.6537,0 9.6922,2.0191 14.1344,10.2308 l 44.1547,80.9047 c 0.9419,1.7502 0.5383,3.0963 -1.6155,3.0963 h -17.6352 c -1.6152,0 -2.423,-0.4039 -3.096,-1.7501 l -38.9041,-72.4238 c -0.4039,-0.8078 -0.8078,-0.9422 -1.4808,-0.9422 h -0.6729 c -0.8079,0 -1.2118,0.1344 -1.6158,0.9422 l -39.4424,72.4238 c -0.6732,1.2115 -1.3462,1.7501 -3.0963,1.7501 z"
           style="fill:none;stroke:#ffffff;stroke-width:6.0001;stroke-linecap:round;stroke-linejoin:round;stroke-miterlimit:22.9256;stroke-dasharray:none;stroke-opacity:1"
           id="path28" />
      </g>
      <path
         d="m 495.4915,448.7851 c -2.321,0 -2.7309,1.3461 -1.775,3.0963 l 45.3299,80.9047 c 4.6426,8.2117 8.602,10.2308 15.702,10.2308 h 7.9191 c 5.7345,0 9.8306,-2.0191 14.3362,-10.2308 l 44.7843,-80.9047 c 0.9556,-1.7502 0.546,-3.0963 -1.6384,-3.0963 H 602.263 c -1.6384,0 -2.4576,0.4039 -3.1402,1.7501 l -39.4591,72.4238 c -0.4097,0.8078 -0.8193,0.9422 -1.5018,0.9422 h -0.6826 c -0.8195,0 -1.2291,-0.1344 -1.6387,-0.9422 l -40.0051,-72.4238 c -0.6829,-1.2115 -1.3655,-1.7501 -3.1405,-1.7501 z"
         style="fill:#4f4c4d;fill-opacity:1;fill-rule:nonzero;stroke:none"
         id="path30" />
      <g
         id="g32"
         transform="scale(0.86,1)">
        <path
           d="m 638.6502,505.4522 h 66.5941 l 12.2212,-18.9836 h -91.0173 z"
           style="fill:none;stroke:#ffffff;stroke-width:6.0001;stroke-linecap:round;stroke-linejoin:round;stroke-miterlimit:22.9256;stroke-dasharray:none;stroke-opacity:1"
           id="path34" />
      </g>
      <path
         d="m 549.2392,505.4522 h 57.2709 l 10.5103,-18.9836 h -78.275 z"
         style="fill:#f47216;fill-opacity:1;fill-rule:evenodd;stroke:none"
         id="path36" />
      <g
         id="g38"
         transform="scale(0.78034)">
        <path
           d="M 453.4398,587.3601 H 408.1414"
           style="fill:none;stroke:#f47216;stroke-width:24.3485;stroke-linecap:butt;stroke-linejoin:miter;stroke-miterlimit:22.9256;stroke-dasharray:none;stroke-opacity:1"
           id="path40" />
      </g>
      <g
         id="g42"
         transform="scale(0.78034)">
        <path
           d="M 456.8845,683.6119 H 408.1414"
           style="fill:none;stroke:#f47216;stroke-width:24.3485;stroke-linecap:butt;stroke-linejoin:miter;stroke-miterlimit:22.9256;stroke-dasharray:none;stroke-opacity:1"
           id="path44" />
      </g>
      <g
         id="g46"
         transform="scale(0.52088,0.64518)">
        <path
           d="m 932.2682,766.7768 c -27.9754,81.2891 -159.3119,109.1976 -252.6724,98.6706 14.4462,-66.5433 15.5636,-122.3734 0,-191.6365 77.2027,-11.1719 213.9888,-3.968 252.6724,92.9659 z"
           style="fill:none;stroke:#f47216;stroke-width:29.0279;stroke-linecap:butt;stroke-linejoin:miter;stroke-miterlimit:22.9256;stroke-dasharray:none;stroke-opacity:1"
           id="path48" />
      </g>
      <g
         id="g50"
         transform="scale(1.01426,1)">
        <path
           d="m 382.0493,513.4541 c -10.0964,0 -13.9952,-3.5989 -13.9952,-13.1955 v -8.597 c 0,-9.5967 3.8988,-13.1955 13.9952,-13.1955 h 15.4446 c 10.1469,0 13.9952,3.5988 13.9952,13.1955 v 8.597 c 0,9.5966 -3.8483,13.1955 -13.9952,13.1955 z m -6.3476,-13.7455 c 0,5.2484 1.4992,6.7978 6.6475,6.7978 h 14.8448 c 5.1482,0 6.6478,-1.5494 6.6478,-6.7978 v -7.4973 c 0,-5.2481 -1.4996,-6.7975 -6.6478,-6.7975 h -14.8448 c -5.1483,0 -6.6475,1.5494 -6.6475,6.7975 z"
           style="fill:none;stroke:#ffffff;stroke-width:1.4848;stroke-linecap:butt;stroke-linejoin:miter;stroke-miterlimit:22.9256;stroke-dasharray:none;stroke-opacity:1"
           id="path52" />
      </g>
      <g
         id="g54"
         transform="scale(1.01426,1)">
        <path
           d="m 419.1863,513.4541 c -0.9995,0 -1.4993,-0.5 -1.4993,-1.4995 v -32.389 c 0,-0.7497 0.3997,-1.0995 1.1495,-1.0995 h 5.3983 c 0.7497,0 1.0995,0.3498 1.0995,1.0995 v 9.9465 h 16.1445 l 7.8973,-10.3963 c 0.3002,-0.4499 0.5496,-0.6497 1.3995,-0.6497 h 6.4476 c 0.9,0 0.9497,0.8997 0.6497,1.2495 l -8.547,10.5965 c 5.2484,0.9496 7.4478,4.2984 7.4478,9.9963 v 2.8491 c 0,6.7476 -3.0991,10.2966 -10.7465,10.2966 z m 6.148,-7.4475 c 0,0.3997 0.1999,0.5999 0.6497,0.5999 h 18.4935 c 3.3991,0 4.6486,-1.4497 4.6486,-4.4487 v -2.0991 c 0,-2.999 -1.2495,-4.4484 -4.6486,-4.4484 h -19.1432 z"
           style="fill:none;stroke:#ffffff;stroke-width:1.4848;stroke-linecap:butt;stroke-linejoin:miter;stroke-miterlimit:22.9256;stroke-dasharray:none;stroke-opacity:1"
           id="path56" />
      </g>
      <path
         d="m 387.4983,513.4541 c -10.2404,0 -14.1947,-3.5989 -14.1947,-13.1955 v -8.597 c 0,-9.5967 3.9543,-13.1955 14.1947,-13.1955 h 15.6648 c 10.2915,0 14.1948,3.5988 14.1948,13.1955 v 8.597 c 0,9.5966 -3.9033,13.1955 -14.1948,13.1955 z M 381.06,499.7086 c 0,5.2484 1.5208,6.7978 6.7425,6.7978 h 15.0565 c 5.2217,0 6.7425,-1.5494 6.7425,-6.7978 v -7.4973 c 0,-5.2481 -1.5208,-6.7975 -6.7425,-6.7975 h -15.0565 c -5.2217,0 -6.7425,1.5494 -6.7425,6.7975 z"
         style="fill:#4f4c4d;fill-opacity:1;fill-rule:nonzero;stroke:none"
         id="path58" />
      <path
         d="m 425.1648,513.4541 c -1.0137,0 -1.5205,-0.5 -1.5205,-1.4995 v -32.389 c 0,-0.7497 0.4054,-1.0995 1.1659,-1.0995 h 5.4751 c 0.7606,0 1.1155,0.3498 1.1155,1.0995 v 9.9465 h 16.3746 l 8.0098,-10.3963 c 0.3045,-0.4499 0.5576,-0.6497 1.4196,-0.6497 h 6.5395 c 0.9128,0 0.9633,0.8997 0.6591,1.2495 l -8.6689,10.5965 c 5.3232,0.9496 7.5538,4.2984 7.5538,9.9963 v 2.8491 c 0,6.7476 -3.1431,10.2966 -10.8995,10.2966 z m 6.236,-7.4475 c 0,0.3997 0.2026,0.5999 0.6587,0.5999 h 18.7574 c 3.4475,0 4.7149,-1.4497 4.7149,-4.4487 v -2.0991 c 0,-2.999 -1.2674,-4.4484 -4.7149,-4.4484 h -19.4161 z"
         style="fill:#4f4c4d;fill-opacity:1;fill-rule:nonzero;stroke:none"
         id="path60" />
      <g
         id="g62"
         transform="scale(1.01426,1)">
        <path
           d="m 253.7274,542.9764 c -27.1927,0 -37.6928,-9.6925 -37.6928,-35.5388 v -23.1543 c 0,-25.8463 10.5001,-35.5388 37.6928,-35.5388 h 60.7122 c 2.0188,0 2.9613,0.9423 2.9613,2.9617 v 13.1924 c 0,2.0191 -0.9425,2.9617 -2.9613,2.9617 H 254.535 c -13.8656,0 -17.9042,4.1728 -17.9042,18.4424 v 19.1155 c 0,14.2693 4.0386,18.3078 17.9042,18.3078 h 59.9046 c 2.0188,0 2.9613,1.0769 2.9613,3.0963 v 13.1924 c 0,2.0192 -0.9425,2.9617 -2.9613,2.9617 z"
           style="fill:none;stroke:#ffffff;stroke-width:6.0001;stroke-linecap:round;stroke-linejoin:round;stroke-miterlimit:22.9256;stroke-dasharray:none;stroke-opacity:1"
           id="path64" />
      </g>
      <path
         d="m 257.3461,542.9764 c -27.5805,0 -38.2303,-9.6925 -38.2303,-35.5388 v -23.1543 c 0,-25.8463 10.6498,-35.5388 38.2303,-35.5388 h 61.5782 c 2.0477,0 3.0036,0.9423 3.0036,2.9617 v 13.1924 c 0,2.0191 -0.9559,2.9617 -3.0036,2.9617 h -60.7589 c -14.0636,0 -18.1596,4.1728 -18.1596,18.4424 v 19.1155 c 0,14.2693 4.096,18.3078 18.1596,18.3078 h 60.7589 c 2.0477,0 3.0036,1.0769 3.0036,3.0963 v 13.1924 c 0,2.0192 -0.9559,2.9617 -3.0036,2.9617 z"
         style="fill:#4f4c4d;fill-opacity:1;fill-rule:nonzero;stroke:none"
         id="path66" />
    </g>
  </g>
</svg>
